<svg width="25" height="24" viewBox="0 0 25 24" fill="none" xmlns="http://www.w3.org/2000/svg">
<path d="M1.0628 0C0.780929 0 0.510602 0.105357 0.311288 0.292893C0.111974 0.48043 0 0.734784 0 1C0 1.26522 0.111974 1.51957 0.311288 1.70711C0.510602 1.89464 0.780929 2 1.0628 2H1.5857C1.81648 2.00038 2.04086 2.07142 2.22493 2.2024C2.409 2.33338 2.54276 2.51717 2.60599 2.726L5.9772 13.826C6.16787 14.4524 6.57011 15.0034 7.12311 15.3956C7.67611 15.7878 8.3498 16 9.04232 16H18.7542C19.3916 16.0001 20.0143 15.8205 20.5421 15.4843C21.0699 15.1481 21.4785 14.6708 21.7152 14.114L24.8483 6.742C24.9771 6.43865 25.025 6.11024 24.9877 5.78546C24.9505 5.46068 24.8293 5.14943 24.6347 4.87892C24.4401 4.6084 24.178 4.38685 23.8714 4.23364C23.5648 4.08042 23.2229 4.00021 22.8757 4H5.20348L4.64869 2.176C4.45851 1.54955 4.05675 0.998372 3.50414 0.605793C2.95154 0.213214 2.27813 0.000568736 1.5857 0H1.0628ZM8.02203 13.274L5.8114 6H22.8736L19.7405 13.372C19.6615 13.5574 19.5254 13.7163 19.3496 13.8282C19.1738 13.9401 18.9664 14 18.7542 14H9.04232C8.81154 13.9996 8.58716 13.9286 8.40309 13.7976C8.21902 13.6666 8.08526 13.4828 8.02203 13.274ZM9.56521 24C9.98392 24 10.3985 23.9224 10.7854 23.7716C11.1722 23.6209 11.5237 23.3999 11.8198 23.1213C12.1158 22.8427 12.3507 22.512 12.5109 22.1481C12.6711 21.7841 12.7536 21.394 12.7536 21C12.7536 20.606 12.6711 20.2159 12.5109 19.8519C12.3507 19.488 12.1158 19.1573 11.8198 18.8787C11.5237 18.6001 11.1722 18.3791 10.7854 18.2284C10.3985 18.0776 9.98392 18 9.56521 18C8.7196 18 7.90861 18.3161 7.31067 18.8787C6.71273 19.4413 6.37681 20.2044 6.37681 21C6.37681 21.7956 6.71273 22.5587 7.31067 23.1213C7.90861 23.6839 8.7196 24 9.56521 24ZM9.56521 22C9.28334 22 9.01301 21.8946 8.8137 21.7071C8.61439 21.5196 8.50241 21.2652 8.50241 21C8.50241 20.7348 8.61439 20.4804 8.8137 20.2929C9.01301 20.1054 9.28334 20 9.56521 20C9.84709 20 10.1174 20.1054 10.3167 20.2929C10.516 20.4804 10.628 20.7348 10.628 21C10.628 21.2652 10.516 21.5196 10.3167 21.7071C10.1174 21.8946 9.84709 22 9.56521 22ZM18.0676 24C18.4863 24 18.9009 23.9224 19.2878 23.7716C19.6746 23.6209 20.0261 23.3999 20.3222 23.1213C20.6182 22.8427 20.8531 22.512 21.0133 22.1481C21.1736 21.7841 21.256 21.394 21.256 21C21.256 20.606 21.1736 20.2159 21.0133 19.8519C20.8531 19.488 20.6182 19.1573 20.3222 18.8787C20.0261 18.6001 19.6746 18.3791 19.2878 18.2284C18.9009 18.0776 18.4863 18 18.0676 18C17.222 18 16.411 18.3161 15.8131 18.8787C15.2151 19.4413 14.8792 20.2044 14.8792 21C14.8792 21.7956 15.2151 22.5587 15.8131 23.1213C16.411 23.6839 17.222 24 18.0676 24ZM18.0676 22C17.7858 22 17.5154 21.8946 17.3161 21.7071C17.1168 21.5196 17.0048 21.2652 17.0048 21C17.0048 20.7348 17.1168 20.4804 17.3161 20.2929C17.5154 20.1054 17.7858 20 18.0676 20C18.3495 20 18.6198 20.1054 18.8191 20.2929C19.0185 20.4804 19.1304 20.7348 19.1304 21C19.1304 21.2652 19.0185 21.5196 18.8191 21.7071C18.6198 21.8946 18.3495 22 18.0676 22Z" fill="black"/>
</svg>
