<svg width="17" height="19" viewBox="0 0 17 19" fill="none" xmlns="http://www.w3.org/2000/svg">
<path d="M5.20833 2.08589C4.93207 2.08589 4.66711 2.19563 4.47176 2.39098C4.27641 2.58633 4.16667 2.85129 4.16667 3.12755C4.16667 3.40382 4.27641 3.66877 4.47176 3.86412C4.66711 4.05947 4.93207 4.16922 5.20833 4.16922C5.4846 4.16922 5.74955 4.05947 5.9449 3.86412C6.14025 3.66877 6.25 3.40382 6.25 3.12755C6.25 2.85129 6.14025 2.58633 5.9449 2.39098C5.74955 2.19563 5.4846 2.08589 5.20833 2.08589ZM2.26042 2.08589C2.47563 1.47596 2.87473 0.947796 3.40271 0.574208C3.93069 0.200621 4.56155 0 5.20833 0C5.85512 0 6.48598 0.200621 7.01396 0.574208C7.54194 0.947796 7.94104 1.47596 8.15625 2.08589H15.625C15.9013 2.08589 16.1662 2.19563 16.3616 2.39098C16.5569 2.58633 16.6667 2.85129 16.6667 3.12755C16.6667 3.40382 16.5569 3.66877 16.3616 3.86412C16.1662 4.05947 15.9013 4.16922 15.625 4.16922H8.15625C7.94104 4.77915 7.54194 5.30731 7.01396 5.6809C6.48598 6.05448 5.85512 6.25511 5.20833 6.25511C4.56155 6.25511 3.93069 6.05448 3.40271 5.6809C2.87473 5.30731 2.47563 4.77915 2.26042 4.16922H1.04167C0.765399 4.16922 0.500448 4.05947 0.305097 3.86412C0.109747 3.66877 0 3.40382 0 3.12755C0 2.85129 0.109747 2.58633 0.305097 2.39098C0.500448 2.19563 0.765399 2.08589 1.04167 2.08589H2.26042ZM11.4583 8.33589C11.1821 8.33589 10.9171 8.44563 10.7218 8.64098C10.5264 8.83633 10.4167 9.10129 10.4167 9.37755C10.4167 9.65382 10.5264 9.91877 10.7218 10.1141C10.9171 10.3095 11.1821 10.4192 11.4583 10.4192C11.7346 10.4192 11.9996 10.3095 12.1949 10.1141C12.3903 9.91877 12.5 9.65382 12.5 9.37755C12.5 9.10129 12.3903 8.83633 12.1949 8.64098C11.9996 8.44563 11.7346 8.33589 11.4583 8.33589ZM8.51042 8.33589C8.72563 7.72596 9.12473 7.1978 9.65271 6.82421C10.1807 6.45062 10.8115 6.25 11.4583 6.25C12.1051 6.25 12.736 6.45062 13.264 6.82421C13.7919 7.1978 14.191 7.72596 14.4062 8.33589H15.625C15.9013 8.33589 16.1662 8.44563 16.3616 8.64098C16.5569 8.83633 16.6667 9.10129 16.6667 9.37755C16.6667 9.65382 16.5569 9.91877 16.3616 10.1141C16.1662 10.3095 15.9013 10.4192 15.625 10.4192H14.4062C14.191 11.0291 13.7919 11.5573 13.264 11.9309C12.736 12.3045 12.1051 12.5051 11.4583 12.5051C10.8115 12.5051 10.1807 12.3045 9.65271 11.9309C9.12473 11.5573 8.72563 11.0291 8.51042 10.4192H1.04167C0.765399 10.4192 0.500448 10.3095 0.305097 10.1141C0.109747 9.91877 0 9.65382 0 9.37755C0 9.10129 0.109747 8.83633 0.305097 8.64098C0.500448 8.44563 0.765399 8.33589 1.04167 8.33589H8.51042ZM5.20833 14.5859C4.93207 14.5859 4.66711 14.6956 4.47176 14.891C4.27641 15.0863 4.16667 15.3513 4.16667 15.6276C4.16667 15.9038 4.27641 16.1688 4.47176 16.3641C4.66711 16.5595 4.93207 16.6692 5.20833 16.6692C5.4846 16.6692 5.74955 16.5595 5.9449 16.3641C6.14025 16.1688 6.25 15.9038 6.25 15.6276C6.25 15.3513 6.14025 15.0863 5.9449 14.891C5.74955 14.6956 5.4846 14.5859 5.20833 14.5859ZM2.26042 14.5859C2.47563 13.976 2.87473 13.4478 3.40271 13.0742C3.93069 12.7006 4.56155 12.5 5.20833 12.5C5.85512 12.5 6.48598 12.7006 7.01396 13.0742C7.54194 13.4478 7.94104 13.976 8.15625 14.5859H15.625C15.9013 14.5859 16.1662 14.6956 16.3616 14.891C16.5569 15.0863 16.6667 15.3513 16.6667 15.6276C16.6667 15.9038 16.5569 16.1688 16.3616 16.3641C16.1662 16.5595 15.9013 16.6692 15.625 16.6692H8.15625C7.94104 17.2792 7.54194 17.8073 7.01396 18.1809C6.48598 18.5545 5.85512 18.7551 5.20833 18.7551C4.56155 18.7551 3.93069 18.5545 3.40271 18.1809C2.87473 17.8073 2.47563 17.2792 2.26042 16.6692H1.04167C0.765399 16.6692 0.500448 16.5595 0.305097 16.3641C0.109747 16.1688 0 15.9038 0 15.6276C0 15.3513 0.109747 15.0863 0.305097 14.891C0.500448 14.6956 0.765399 14.5859 1.04167 14.5859H2.26042Z" fill="black"/>
</svg>
